<svg width="30" height="30" viewBox="0 0 30 30" fill="none" xmlns="http://www.w3.org/2000/svg">
<path fill-rule="evenodd" clip-rule="evenodd" d="M15 1.875C15.2487 1.875 15.4871 1.97377 15.6629 2.14959C15.8388 2.3254 15.9375 2.56386 15.9375 2.8125V24.9244L21.8363 19.0238C22.0123 18.8477 22.2511 18.7488 22.5 18.7488C22.749 18.7488 22.9877 18.8477 23.1638 19.0238C23.3398 19.1998 23.4387 19.4385 23.4387 19.6875C23.4387 19.9365 23.3398 20.1752 23.1638 20.3512L15.6638 27.8512C15.5767 27.9386 15.4732 28.0078 15.3593 28.0551C15.2454 28.1023 15.1233 28.1267 15 28.1267C14.8767 28.1267 14.7546 28.1023 14.6407 28.0551C14.5268 28.0078 14.4234 27.9386 14.3363 27.8512L6.83627 20.3512C6.66024 20.1752 6.56134 19.9365 6.56134 19.6875C6.56134 19.4385 6.66024 19.1998 6.83627 19.0238C7.01231 18.8477 7.25107 18.7488 7.50002 18.7488C7.74898 18.7488 7.98774 18.8477 8.16377 19.0238L14.0625 24.9244V2.8125C14.0625 2.56386 14.1613 2.3254 14.3371 2.14959C14.5129 1.97377 14.7514 1.875 15 1.875Z" fill="black"/>
</svg>
