<svg width="13" height="8" viewBox="0 0 13 8" fill="none" xmlns="http://www.w3.org/2000/svg">
<path d="M0.533765 0.962186C0.709572 0.786432 0.947986 0.687698 1.19658 0.687698C1.44517 0.687698 1.68358 0.786432 1.85939 0.962186L6.50001 5.60281L11.1406 0.962186C11.3175 0.791413 11.5543 0.696917 11.8001 0.699053C12.0459 0.70119 12.281 0.799786 12.4548 0.973606C12.6287 1.14743 12.7273 1.38256 12.7294 1.62837C12.7315 1.87418 12.637 2.111 12.4663 2.28781L7.16283 7.59125C6.98702 7.767 6.74861 7.86574 6.50001 7.86574C6.25142 7.86574 6.01301 7.767 5.8372 7.59125L0.533765 2.28781C0.358011 2.112 0.259277 1.87359 0.259277 1.625C0.259277 1.37641 0.358011 1.13799 0.533765 0.962186V0.962186Z" fill="black"/>
</svg>
