<svg width="29" height="29" viewBox="0 0 29 29" fill="none" xmlns="http://www.w3.org/2000/svg">
<path d="M12.5261 19.1898L18.1731 14.752C18.2109 14.7221 18.2414 14.684 18.2623 14.6406C18.2833 14.5972 18.2942 14.5496 18.2942 14.5014C18.2942 14.4532 18.2833 14.4056 18.2623 14.3622C18.2414 14.3189 18.2109 14.2807 18.1731 14.2508L12.5261 9.81015C12.3165 9.6459 12.0078 9.79316 12.0078 10.0594V18.9378C12.0078 19.204 12.3165 19.3541 12.5261 19.1898Z" fill="black"/>
<path d="M24.9219 3.17188H4.07812C3.57686 3.17188 3.17188 3.57686 3.17188 4.07812V24.9219C3.17188 25.4231 3.57686 25.8281 4.07812 25.8281H24.9219C25.4231 25.8281 25.8281 25.4231 25.8281 24.9219V4.07812C25.8281 3.57686 25.4231 3.17188 24.9219 3.17188ZM23.7891 23.7891H5.21094V5.21094H23.7891V23.7891Z" fill="black"/>
</svg>
